# xmcd CD database file
#
# Track frame offsets:
#	150
#	36000
#	57125
#	87481
#	117490
#	157685
#	198097
#	229916
#	273603
#	298599
#	326562
#
# Disc length: 4679 seconds
#
# Revision: 0
# Processed by: cddbd v1.5.2PL0 Copyright (c) Steve Scherf et al.
# Submitted via: CDex 1.70beta2
#
DISCID=9612450b
DTITLE=Lee Child - 61 Hours Disc 4
DYEAR=2010
DGENRE=Audio Book
TTITLE0=61 Hours Disc 4-01
TTITLE1=61 Hours Disc 4-02
TTITLE2=61 Hours Disc 4-03
TTITLE3=61 Hours Disc 4-04
TTITLE4=61 Hours Disc 4-05
TTITLE5=61 Hours Disc 4-06
TTITLE6=61 Hours Disc 4-07
TTITLE7=61 Hours Disc 4-08
TTITLE8=61 Hours Disc 4-09
TTITLE9=61 Hours Disc 4-10
TTITLE10=61 Hours Disc 4-11
EXTD=YEAR: 2010
EXTT0=
EXTT1=
EXTT2=
EXTT3=
EXTT4=
EXTT5=
EXTT6=
EXTT7=
EXTT8=
EXTT9=
EXTT10=
PLAYORDER=
